<svg width="51" height="54" viewBox="0 0 51 54" fill="none" xmlns="http://www.w3.org/2000/svg">
<mask id="mask0_6_321" style="mask-type:alpha" maskUnits="userSpaceOnUse" x="6" y="6" width="39" height="48">
<path d="M30.0857 34.8321V38.3786H30.8571C38.526 38.3786 44.7428 44.5954 44.7428 52.2643V54H6.17139V52.2643C6.17139 44.5954 12.3882 38.3786 20.0571 38.3786H20.8285V34.8321C17.5042 33.2529 15.1146 30.0254 14.7159 26.2057C13.5926 26.0469 12.7285 25.0815 12.7285 23.9143V21.2143C12.7285 20.0676 13.5626 19.1156 14.6571 18.932V17.7429C14.6571 11.7782 19.4924 6.94287 25.4571 6.94287C31.4218 6.94287 36.2571 11.7782 36.2571 17.7429V18.932C37.3516 19.1156 38.1857 20.0676 38.1857 21.2143V23.9143C38.1857 25.0815 37.3216 26.0469 36.1982 26.2057C35.7996 30.0254 33.41 33.2529 30.0857 34.8321Z" fill="white"/>
</mask>
<g mask="url(#mask0_6_321)">
<path d="M30.0857 34.8321V38.3786H30.8571C38.526 38.3786 44.7428 44.5954 44.7428 52.2643V54H6.17139V52.2643C6.17139 44.5954 12.3882 38.3786 20.0571 38.3786H20.8285V34.8321C17.5042 33.2529 15.1146 30.0254 14.7159 26.2057C13.5926 26.0469 12.7285 25.0815 12.7285 23.9143V21.2143C12.7285 20.0676 13.5626 19.1156 14.6571 18.932V17.7429C14.6571 11.7782 19.4924 6.94287 25.4571 6.94287C31.4218 6.94287 36.2571 11.7782 36.2571 17.7429V18.932C37.3516 19.1156 38.1857 20.0676 38.1857 21.2143V23.9143C38.1857 25.0815 37.3216 26.0469 36.1982 26.2057C35.7996 30.0254 33.41 33.2529 30.0857 34.8321Z" fill="#D0C6AC"/>
<path d="M57.0857 6.94287H6.17139V60.9429H57.0857V6.94287Z" fill="#FFBF85"/>
<path fill-rule="evenodd" clip-rule="evenodd" d="M36.2571 22.1786V26.6143C36.2571 32.5789 31.4218 37.4143 25.4571 37.4143C19.4924 37.4143 14.6571 32.5789 14.6571 26.6143V22.1786V25.0714C14.6571 31.0361 19.4924 35.8714 25.4571 35.8714C31.4218 35.8714 36.2571 31.0361 36.2571 25.0714V22.1786Z" fill="black" fill-opacity="0.1"/>
</g>
<mask id="mask1_6_321" style="mask-type:alpha" maskUnits="userSpaceOnUse" x="6" y="35" width="39" height="19">
<path fill-rule="evenodd" clip-rule="evenodd" d="M20.8285 35.3065C17.3728 35.6932 14.7111 36.7493 14.6579 39.4672C9.67106 41.5738 6.17139 46.5103 6.17139 52.2642V54H44.7428V52.2642C44.7428 46.5103 41.2431 41.5738 36.2563 39.4672C36.2031 36.7493 33.5414 35.6932 30.0857 35.3065V38.9571C30.0857 41.5134 28.0134 43.5857 25.4571 43.5857C22.9008 43.5857 20.8285 41.5134 20.8285 38.9571V35.3065Z" fill="white"/>
</mask>
<g mask="url(#mask1_6_321)">
<path fill-rule="evenodd" clip-rule="evenodd" d="M20.8285 35.3065C17.3728 35.6932 14.7111 36.7493 14.6579 39.4672C9.67106 41.5738 6.17139 46.5103 6.17139 52.2642V54H44.7428V52.2642C44.7428 46.5103 41.2431 41.5738 36.2563 39.4672C36.2031 36.7493 33.5414 35.6932 30.0857 35.3065V38.9571C30.0857 41.5134 28.0134 43.5857 25.4571 43.5857C22.9008 43.5857 20.8285 41.5134 20.8285 38.9571V35.3065Z" fill="#B7C1DB"/>
<path d="M50.9143 32.7857H0V54H50.9143V32.7857Z" fill="#273C4D"/>
<path fill-rule="evenodd" clip-rule="evenodd" d="M19.6714 44.6925V54H18.3214V44.0004C18.7464 44.253 19.1983 44.4846 19.6714 44.6925ZM32.5928 44.0004V51.7821C32.5928 52.1549 32.2906 52.4571 31.9178 52.4571C31.545 52.4571 31.2428 52.1549 31.2428 51.7821V44.6925C31.716 44.4846 32.1678 44.253 32.5928 44.0004Z" fill="#F4F4F4"/>
<path fill-rule="evenodd" clip-rule="evenodd" d="M17.5423 35.2397C14.6397 35.7887 12.6321 36.8825 12.6321 39.0165C12.6321 42.8181 19.0037 45.9 25.4571 45.9C31.9106 45.9 38.2821 42.8181 38.2821 39.0165C38.2821 36.8825 36.2746 35.7887 33.372 35.2397C35.1241 35.8858 36.2571 36.9719 36.2571 38.7791C36.2571 42.7119 30.8916 45.9 25.4571 45.9C20.0227 45.9 14.6571 42.7119 14.6571 38.7791C14.6571 36.9719 15.7902 35.8858 17.5423 35.2397Z" fill="black" fill-opacity="0.16"/>
</g>
<mask id="mask2_6_321" style="mask-type:alpha" maskUnits="userSpaceOnUse" x="21" y="28" width="9" height="5">
<path fill-rule="evenodd" clip-rule="evenodd" d="M21.8156 28.7604C22.0196 30.591 23.5722 32.0143 25.4571 32.0143C27.3479 32.0143 28.9043 30.5822 29.1005 28.7434C29.1163 28.5955 28.9511 28.35 28.744 28.35C25.8715 28.35 23.6709 28.35 22.1953 28.35C21.987 28.35 21.7952 28.5773 21.8156 28.7604Z" fill="white"/>
</mask>
<g mask="url(#mask2_6_321)">
<path fill-rule="evenodd" clip-rule="evenodd" d="M21.8156 28.7605C22.0197 30.591 23.5722 32.0143 25.4572 32.0143C27.348 32.0143 28.9043 30.5822 29.1006 28.7435C29.1164 28.5955 28.9511 28.35 28.744 28.35C25.8716 28.35 23.6709 28.35 22.1954 28.35C21.987 28.35 21.7952 28.5773 21.8156 28.7605Z" fill="black" fill-opacity="0.7"/>
<path d="M27.5786 26.2286H23.5286C22.996 26.2286 22.5643 26.6603 22.5643 27.1929V28.35C22.5643 28.8826 22.996 29.3143 23.5286 29.3143H27.5786C28.1111 29.3143 28.5428 28.8826 28.5428 28.35V27.1929C28.5428 26.6603 28.1111 26.2286 27.5786 26.2286Z" fill="white"/>
<path d="M24.4928 34.7143C25.6645 34.7143 26.6143 33.7645 26.6143 32.5929C26.6143 31.4212 25.6645 30.4714 24.4928 30.4714C23.3212 30.4714 22.3714 31.4212 22.3714 32.5929C22.3714 33.7645 23.3212 34.7143 24.4928 34.7143Z" fill="#FF4F6D"/>
<path d="M26.4214 34.7143C27.593 34.7143 28.5428 33.7645 28.5428 32.5929C28.5428 31.4212 27.593 30.4714 26.4214 30.4714C25.2498 30.4714 24.3 31.4212 24.3 32.5929C24.3 33.7645 25.2498 34.7143 26.4214 34.7143Z" fill="#FF4F6D"/>
</g>
<path fill-rule="evenodd" clip-rule="evenodd" d="M23.1428 25.0714C23.1428 25.9235 24.179 26.6143 25.4571 26.6143C26.7353 26.6143 27.7714 25.9235 27.7714 25.0714" fill="black" fill-opacity="0.16"/>
<path fill-rule="evenodd" clip-rule="evenodd" d="M17.7737 21.6863C18.1298 20.9536 18.9316 20.4428 19.8638 20.4428C20.7926 20.4428 21.5921 20.95 21.95 21.6785C22.0564 21.8949 21.9051 22.072 21.7524 21.9408C21.2797 21.5344 20.6084 21.2806 19.8638 21.2806C19.1424 21.2806 18.4899 21.5187 18.02 21.9031C17.8483 22.0436 17.6695 21.9005 17.7737 21.6863Z" fill="black" fill-opacity="0.6"/>
<path fill-rule="evenodd" clip-rule="evenodd" d="M28.9594 21.6863C29.3155 20.9536 30.1174 20.4428 31.0495 20.4428C31.9783 20.4428 32.7778 20.95 33.1358 21.6785C33.2421 21.8949 33.0908 22.072 32.9381 21.9408C32.4654 21.5344 31.7941 21.2806 31.0495 21.2806C30.3281 21.2806 29.6756 21.5187 29.2058 21.9031C29.034 22.0436 28.8553 21.9005 28.9594 21.6863Z" fill="black" fill-opacity="0.6"/>
<path d="M17.6715 19.1234C18.4265 18.061 20.4964 17.4653 22.2794 17.9031C22.4862 17.954 22.6951 17.8274 22.7459 17.6206C22.7967 17.4137 22.6702 17.2048 22.4633 17.154C20.3927 16.6455 17.9958 17.3353 17.0427 18.6766C16.9193 18.8502 16.96 19.091 17.1336 19.2144C17.3073 19.3378 17.5481 19.2971 17.6715 19.1234Z" fill="black" fill-opacity="0.6"/>
<path d="M33.2428 19.1234C32.4878 18.061 30.4179 17.4653 28.6349 17.9032C28.428 17.954 28.2191 17.8274 28.1683 17.6206C28.1175 17.4137 28.244 17.2048 28.4509 17.154C30.5215 16.6455 32.9184 17.3353 33.8716 18.6766C33.995 18.8502 33.9543 19.091 33.7806 19.2144C33.607 19.3378 33.3662 19.2971 33.2428 19.1234Z" fill="black" fill-opacity="0.6"/>
<mask id="mask3_6_321" style="mask-type:alpha" maskUnits="userSpaceOnUse" x="0" y="0" width="51" height="54">
<path d="M50.9143 0H0V54H50.9143V0Z" fill="white"/>
</mask>
<g mask="url(#mask3_6_321)">
<mask id="mask4_6_321" style="mask-type:alpha" maskUnits="userSpaceOnUse" x="14" y="3" width="23" height="17">
<path fill-rule="evenodd" clip-rule="evenodd" d="M34.5504 7.69893C34.0181 7.15507 33.4002 6.69345 32.7991 6.23054C32.6665 6.1285 32.5317 6.02892 32.4021 5.92299C32.3726 5.89892 32.0706 5.68267 32.0345 5.60308C31.9476 5.41162 31.9979 5.5607 32.0099 5.33222C32.0251 5.04331 32.6142 4.22729 32.1746 4.04016C31.9812 3.95785 31.6362 4.17688 31.4507 4.24923C31.0879 4.3908 30.7206 4.51155 30.3455 4.61566C30.5252 4.25757 30.8679 3.54075 30.2238 3.73261C29.7221 3.88208 29.2545 4.26637 28.7504 4.44716C28.9172 4.17371 29.5843 3.32638 28.9815 3.27902C28.7939 3.26426 28.2481 3.61614 28.0461 3.6912C27.4411 3.91605 26.8232 4.06138 26.1881 4.17585C24.0285 4.56506 21.5031 4.45409 19.505 5.4373C17.9646 6.19528 16.4435 7.37138 15.5537 8.86902C14.696 10.3126 14.3752 11.8924 14.1957 13.5465C14.0639 14.7605 14.0532 16.0153 14.1148 17.2337C14.135 17.6329 14.1799 19.4729 14.7598 18.9157C15.0487 18.638 15.0466 17.5169 15.1193 17.1374C15.2642 16.3823 15.4036 15.6239 15.645 14.8929C16.0705 13.6049 16.5724 12.2329 17.6324 11.3457C18.3126 10.7765 18.7903 10.0071 19.4412 9.43287C19.7336 9.17495 19.5105 9.2018 19.9806 9.23565C20.2964 9.25836 20.6137 9.26703 20.9301 9.27531C21.6622 9.29433 22.3955 9.28948 23.1277 9.29207C24.6025 9.29738 26.0703 9.31821 27.5436 9.24102C28.1984 9.20672 28.8549 9.18815 29.5079 9.12758C29.8727 9.09374 30.52 8.85996 30.8202 9.03861C31.095 9.20206 31.3804 9.73576 31.5777 9.95434C32.0439 10.4709 32.5998 10.8654 33.1449 11.289C34.2817 12.1722 34.8556 13.2814 35.2008 14.6616C35.5448 16.0367 35.4483 17.3124 35.8741 18.6656C35.949 18.9036 36.1471 19.3137 36.3913 18.9461C36.4366 18.8778 36.4249 18.5025 36.4249 18.2866C36.4249 17.4149 36.6456 16.7609 36.6428 15.8835C36.632 13.2159 36.5458 9.73751 34.5504 7.69893Z" fill="white"/>
</mask>
<g mask="url(#mask4_6_321)">
<path fill-rule="evenodd" clip-rule="evenodd" d="M34.5503 7.69896C34.018 7.1551 33.4001 6.69348 32.799 6.23057C32.6664 6.12853 32.5316 6.02895 32.402 5.92302C32.3725 5.89895 32.0705 5.6827 32.0344 5.60311C31.9474 5.41165 31.9978 5.56073 32.0098 5.33225C32.025 5.04334 32.6141 4.22732 32.1745 4.04019C31.9811 3.95788 31.6361 4.17691 31.4506 4.24926C31.0878 4.39083 30.7205 4.51158 30.3454 4.61569C30.5251 4.2576 30.8677 3.54078 30.2237 3.73264C29.722 3.88211 29.2544 4.2664 28.7503 4.44719C28.9171 4.17374 29.5842 3.32641 28.9814 3.27905C28.7938 3.26429 28.2479 3.61617 28.046 3.69123C27.441 3.91608 26.8231 4.06141 26.188 4.17588C24.0284 4.56509 21.503 4.45412 19.5049 5.43733C17.9645 6.19531 16.4434 7.37141 15.5535 8.86905C14.6959 10.3126 14.3751 11.8924 14.1955 13.5466C14.0638 14.7605 14.0531 16.0154 14.1147 17.2337C14.1348 17.6329 14.1797 19.473 14.7597 18.9157C15.0486 18.6381 15.0465 17.5169 15.1192 17.1374C15.264 16.3823 15.4034 15.6239 15.6449 14.893C16.0704 13.6049 16.5723 12.2329 17.6323 11.3458C18.3125 10.7765 18.7901 10.0072 19.4411 9.4329C19.7335 9.17498 19.5104 9.20184 19.9805 9.23568C20.2963 9.25839 20.6135 9.26706 20.93 9.27534C21.6621 9.29437 22.3953 9.28951 23.1276 9.2921C24.6024 9.29741 26.0702 9.31824 27.5435 9.24105C28.1983 9.20675 28.8548 9.18818 29.5078 9.12762C29.8726 9.09378 30.5199 8.85999 30.8201 9.03865C31.0949 9.20209 31.3803 9.73579 31.5776 9.95437C32.0438 10.4709 32.5997 10.8654 33.1448 11.289C34.2815 12.1722 34.8555 13.2815 35.2007 14.6616C35.5446 16.0367 35.4482 17.3125 35.8739 18.6657C35.9488 18.9036 36.1469 19.3137 36.3912 18.9461C36.4365 18.8778 36.4248 18.5026 36.4248 18.2866C36.4248 17.4149 36.6455 16.7609 36.6427 15.8836C36.6319 13.216 36.5457 9.73754 34.5503 7.69896Z" fill="#1F3140"/>
<path d="M50.7214 0H-0.192871V54H50.7214V0Z" fill="#2C1B18"/>
<g filter="url(#filter0_d_6_321)">
<path d="M19.4786 25.65H18.9467C16.2607 25.65 14.6572 24.1719 14.6572 21.6964C14.6572 19.6959 15.0076 17.7429 19.1951 17.7429H19.7621C23.9496 17.7429 24.3 19.6959 24.3 21.6964C24.3 24.024 22.3177 25.65 19.4786 25.65ZM19.1672 18.9C15.4286 18.9 15.4286 20.2193 15.4286 21.8896C15.4286 23.2532 16.0296 24.8786 18.8944 24.8786H19.4786C21.8633 24.8786 23.5286 23.6495 23.5286 21.8896C23.5286 20.2193 23.5286 18.9 19.79 18.9H19.1672Z" fill="#252C2F"/>
<path d="M31.4357 25.65H30.9038C28.2178 25.65 26.6143 24.1719 26.6143 21.6964C26.6143 19.6959 26.9647 17.7429 31.1522 17.7429H31.7192C35.9067 17.7429 36.2571 19.6959 36.2571 21.6964C36.2571 24.024 34.2748 25.65 31.4357 25.65ZM31.1243 18.9C27.3857 18.9 27.3857 20.2193 27.3857 21.8896C27.3857 23.2532 27.9873 24.8786 30.8515 24.8786H31.4357C33.8203 24.8786 35.4857 23.6495 35.4857 21.8896C35.4857 20.2193 35.4857 18.9 31.7471 18.9H31.1243Z" fill="#252C2F"/>
<path d="M13.4913 18.8559C13.6246 18.7257 15.0833 17.7429 19.1893 17.7429C22.6321 17.7429 23.3608 18.1002 24.464 18.64L24.5447 18.6799C24.6214 18.707 25.0136 18.8402 25.4724 18.8548C25.8904 18.8369 26.2479 18.7236 26.3523 18.6873C27.6115 18.075 28.8439 17.7429 31.725 17.7429C35.831 17.7429 37.2897 18.7257 37.4231 18.8559C37.7382 18.8559 37.9929 19.1047 37.9929 19.4125V19.969C37.9929 20.2768 37.7382 20.5256 37.4231 20.5256C37.4231 20.5256 36.0921 20.5256 36.0921 21.0821C36.0921 21.6387 35.7137 20.2768 35.7137 19.969V19.427C35.0187 19.161 33.7748 18.6659 31.725 18.6659C29.4413 18.6659 28.3039 19.0709 27.3283 19.473L27.3392 19.4993L27.3387 19.8824L26.9111 20.9141L26.383 20.7053C26.3358 20.6867 26.234 20.6531 26.0929 20.6183C25.6994 20.5213 25.295 20.4918 24.9372 20.5652C24.806 20.5921 24.6842 20.6326 24.5725 20.6872L24.0629 20.9362L23.553 19.9407L23.5757 19.4982L23.5912 19.4606C22.7498 19.0685 21.974 18.6659 19.1893 18.6659C17.1396 18.6659 15.8957 19.1608 15.2007 19.4268V19.969C15.2007 20.2768 14.6309 21.6387 14.6309 21.0821C14.6309 20.5256 13.4913 20.5256 13.4913 20.5256C13.1767 20.5256 12.9214 20.2768 12.9214 19.969V19.4125C12.9214 19.1047 13.1767 18.8559 13.4913 18.8559Z" fill="#252C2F"/>
</g>
</g>
</g>
<defs>
<filter id="filter0_d_6_321" x="6.9063" y="14.7353" width="37.1017" height="19.9374" filterUnits="userSpaceOnUse" color-interpolation-filters="sRGB">
<feFlood flood-opacity="0" result="BackgroundImageFix"/>
<feColorMatrix in="SourceAlpha" type="matrix" values="0 0 0 0 0 0 0 0 0 0 0 0 0 0 0 0 0 0 127 0" result="hardAlpha"/>
<feOffset dy="3.00758"/>
<feGaussianBlur stdDeviation="3.00758"/>
<feColorMatrix type="matrix" values="0 0 0 0 0 0 0 0 0 0 0 0 0 0 0 0 0 0 0.2 0"/>
<feBlend mode="normal" in2="BackgroundImageFix" result="effect1_dropShadow_6_321"/>
<feBlend mode="normal" in="SourceGraphic" in2="effect1_dropShadow_6_321" result="shape"/>
</filter>
</defs>
</svg>
